# xmcd
#
# Track frame offsets: 
#        150
#        17497
#        34467
#        61180
#        86307
#        109967
#        129382
#        150500
#        170502
#        195762
#        217527
#        240502
#        264185
#        285217
#        310452
#        332167
#
# Disc length: 4773 seconds
#
# Revision: 1
# Processed by: cddbd v1.5.2PL0 Copyright (c) Steve Scherf et al.
# Submitted via: ExactAudioCopy v0.99pb4
#
DISCID=c212a310
DTITLE=Various Artist - Danke für das Kreuz
DYEAR=2006
DGENRE=Pop
TTITLE0=Elke Reichert - Jesus, wir feiern Deinen Sieg am Kreuz
TTITLE1=Ingo Beckmann - Feiert Jesus
TTITLE2=Lothar Kosse - Ich weiß, dass mein Erlöser lebt
TTITLE3=Chris Mühlan - Wieder neu
TTITLE4=Arne Kopfermann - An einem Kreuz (Kyrie Eleison)
TTITLE5=Johannes Falk - Jesus, führe mich zum Kreuz
TTITLE6=Claus-Peter Eberwein - Danke für das Kreuz
TTITLE7=Arne Kopfermann - 99
TTITLE8=Yasmina Hunzinger - Ich will dich anbeten
TTITLE9=Andrea Adams-Frey - Herr, du bist mächtig
TTITLE10=Arne Kopfermann - In der Nacht vor seinem Tod
TTITLE11=Danny Janz - Kommt und seht
TTITLE12=Andrea Adams-Frey - Siehst du das Lamm
TTITLE13=Andrea Adams-Frey - Zwischen Himmel und Erde
TTITLE14=Pamela Natterer - Teuer erkauft
TTITLE15=Pamela Natterer - Mein Gott, wie liebst du mich
EXTD=www.gerth.de - ArtNo. 946329
EXTT0=
EXTT1=
EXTT2=
EXTT3=
EXTT4=
EXTT5=
EXTT6=
EXTT7=
EXTT8=
EXTT9=
EXTT10=
EXTT11=
EXTT12=
EXTT13=
EXTT14=
EXTT15=
PLAYORDER=
